<svg xmlns="http://www.w3.org/2000/svg" viewBox="0 0 70.69 88.3625" x="0px" y="0px"><title>remove </title><g data-name="Calque 2"><g><path d="M35.34,0A35.34,35.34,0,1,0,70.69,35.34,35.38,35.38,0,0,0,35.34,0Zm0,64.69A29.34,29.34,0,1,1,64.69,35.34,29.38,29.38,0,0,1,35.34,64.69Z"/><path d="M51.54,19.15a3.5,3.5,0,0,0-4.95,0L35.34,30.4,24.1,19.15a3.5,3.5,0,0,0-4.95,4.95L30.4,35.34,19.15,46.59a3.5,3.5,0,1,0,4.95,4.95L35.34,40.29,46.59,51.54a3.5,3.5,0,0,0,4.95-4.95L40.29,35.34,51.54,24.1A3.5,3.5,0,0,0,51.54,19.15Z"/></g></g><text x="0" y="85.69" fill="#000000" font-size="5px" font-weight="bold" font-family="'Helvetica Neue', Helvetica, Arial-Unicode, Arial, Sans-serif">Created by Tanguy Keryhuel</text><text x="0" y="90.69" fill="#000000" font-size="5px" font-weight="bold" font-family="'Helvetica Neue', Helvetica, Arial-Unicode, Arial, Sans-serif">from the Noun Project</text></svg>