<svg xmlns="http://www.w3.org/2000/svg" xmlns:xlink="http://www.w3.org/1999/xlink" version="1.1" x="0px" y="0px" viewBox="0 0 512 640" enable-background="new 0 0 512 512" xml:space="preserve"><g><path d="M427.116,170.816c0-94.34-76.621-170.807-171.115-170.807c-94.465,0-171.117,76.466-171.117,170.807h101.183   c0-38.499,31.405-69.81,69.935-69.81c38.561,0,69.935,31.311,69.935,69.81c0,25.999-14.345,48.732-35.53,60.732v0.063   c-33.467,19.484-59.652,49.983-73.715,86.481l0,0c-4.75,12.438-8.093,25.531-9.843,39.155h0.094v30.249h103.401v-30.249h-0.188   c5.563-16.749,17.313-30.687,32.563-39.155h-0.096C393.181,288.438,427.116,233.595,427.116,170.816z"/><rect x="206.94" y="426.713" width="103.4" height="85.278"/></g><text x="0" y="527" fill="#000000" font-size="5px" font-weight="bold" font-family="'Helvetica Neue', Helvetica, Arial-Unicode, Arial, Sans-serif">Created by Hassan ali</text><text x="0" y="532" fill="#000000" font-size="5px" font-weight="bold" font-family="'Helvetica Neue', Helvetica, Arial-Unicode, Arial, Sans-serif">from the Noun Project</text></svg>