<svg xmlns="http://www.w3.org/2000/svg" xmlns:xlink="http://www.w3.org/1999/xlink" version="1.1" x="0px" y="0px" viewBox="0 0 1024 1280" style="enable-background:new 0 0 1024 1024;" xml:space="preserve"><g><path d="M926,398.2c0-25.4,0.7-51,0-76.4c0-0.4,0-0.7,0-1.1c0-5.4-4.6-10-10-10H140.8c-10.5,0-20.9-0.2-31.4,0   c-0.5,0-0.9,0-1.4,0c-5.4,0-10,4.6-10,10v525.5c0,2.3,0,4.6,0,6.8c0.2,18.9,7.8,37.3,21.5,50.5c13.1,12.6,30.5,19.5,48.7,19.7   c1.9,0,3.8,0,5.7,0H856c0.2,0,0.4,0,0.6,0c38.1-0.8,69-32,69.4-70.2c0.1-6.7,0-13.5,0-20.2V398.2z M689,451.4   c0,1.1-0.1,2.2-0.2,3.2c-1,10.3-5.6,19.6-12.6,26.5c-7.9,7.9-18.8,12.9-30.7,12.9h-267c-23.2,0-42.4-18.6-43.5-41.5   c0-0.4,0-0.7,0-1.1s0-0.8,0-1.1c0-0.3,0-0.7,0-1c0-0.4,0-0.7,0-1.1c0.5-11.1,5.3-21.2,12.7-28.6c7.9-7.9,18.8-12.8,30.7-12.8h267   c22.9,0,41.7,17.9,43.4,40.3c0.1,0.7,0.1,1.5,0.1,2.2c0,0.3,0,0.7,0,1C689,450.6,689,451,689,451.4z"/></g><g><path d="M986.2,245.5c-0.2,16.6-12.2,29.4-28.6,30.6c-0.4,0-0.7-0.1-1.1-0.1H115.8c-15.5,0-31,0.2-46.4,0.1   c-18-0.1-31.7-13-31.8-31.3c-0.1-19.1,0-38.2,0-57.4c0-18.5-0.2-37,0-55.5c0.2-18.3,14.1-31,32-31h879.3c4.8,0,9.6-0.4,14.3,0.7   c14.5,3.1,23,16.5,23.1,30.7c0,7.5-0.2,14.9-0.2,22.3v70.8C986,232.2,986.3,238.8,986.2,245.5z"/></g><text x="0" y="1039" fill="#000000" font-size="5px" font-weight="bold" font-family="'Helvetica Neue', Helvetica, Arial-Unicode, Arial, Sans-serif">Created by shashank singh</text><text x="0" y="1044" fill="#000000" font-size="5px" font-weight="bold" font-family="'Helvetica Neue', Helvetica, Arial-Unicode, Arial, Sans-serif">from the Noun Project</text></svg>